<?xml version="1.0" encoding="UTF-8"?>
<svg width="256px" height="256px" viewBox="0 0 256 256" version="1.1" xmlns="http://www.w3.org/2000/svg" xmlns:xlink="http://www.w3.org/1999/xlink">
    <title>Logo2</title>
    <g id="Page-2" stroke="none" stroke-width="1" fill="none" fill-rule="evenodd">
        <g id="Logo2">
            <rect id="Rectangle" x="0" y="0" width="256" height="256"></rect>
            <path d="M175.175944,44.3718288 C168.09148,40.3667732 160.447446,37.2359212 152.390337,35.1257665 C144.602088,33.0860263 136.427871,32 128,32 C114.150624,32 100.986212,34.932682 89.0939,40.2109114 C55.4590708,55.1392398 32,88.8300401 32,128 C32,181.019336 74.980664,224 128,224 C181.019336,224 224,181.019336 224,128 C224,108.858607 218.39789,91.0256571 208.743798,76.0512782" id="Path" stroke="#A166EF" stroke-width="8"></path>
            <path d="M174.821118,83.8383672 C174.021118,82.2383672 172.687784,80.9050338 171.087785,80.3717005 C169.487785,79.8383672 167.621118,79.8383672 166.021118,80.6383672 L83.8877845,119.838367 C82.0211179,120.638367 80.6877845,122.505034 80.1544512,124.371701 C79.3544512,127.838367 81.7544512,131.571701 85.2211178,132.371701 L116.421118,139.038367 L123.087785,170.238367 C123.621118,172.371701 124.954451,173.971701 126.821118,174.771701 C127.621118,175.305034 128.687784,175.305034 129.754451,175.305034 C132.154451,175.305034 134.554451,173.971701 135.887785,171.571701 L175.087785,89.4383672 C175.887785,87.8383672 175.887785,85.7050338 174.821118,83.8383672 Z M130.287785,164.905034 L123.887785,135.038367 C123.621118,133.438367 122.287785,132.371701 120.954451,132.105034 L90.8211178,125.438367 L166.021118,89.4383672 L130.287785,164.905034 Z" id="Shape" fill="#A166EF" fill-rule="nonzero"></path>
        </g>
    </g>
</svg>